{
  "accessors": [
    {
      "bufferView": 2,
      "componentType": 5126,
      "count": 41603,
      "max": [
        0.33576899766921997,
        0.77513700723648071,
        0.30111101269721985
      ],
      "min": [
        -0.33576899766921997,
        0.13797600567340851,
        -0.4732469916343689
      ],
      "type": "VEC3"
    },
    {
      "bufferView": 2,
      "byteOffset": 499236,
      "componentType": 5126,
      "count": 41603,
      "max": [
        1,
        0.99999964237213135,
        0.99999982118606567
      ],
      "min": [
        -1,
        -1,
        -0.99999994039535522
      ],
      "type": "VEC3"
    },
    {
      "bufferView": 3,
      "componentType": 5126,
      "count": 41603,
      "max": [
        1,
        0.99895542860031128,
        1,
        1
      ],
      "min": [
        -1,
        -0.99992775917053223,
        -1,
        -1
      ],
      "type": "VEC4"
    },
    {
      "bufferView": 1,
      "componentType": 5126,
      "count": 41603,
      "max": [
        1.0142999887466431,
        1.0320999622344971
      ],
      "min": [
        -1,
        -0.032253898680210114
      ],
      "type": "VEC2"
    },
    {
      "bufferView": 1,
      "byteOffset": 332824,
      "componentType": 5126,
      "count": 41603,
      "max": [
        2.403709888458252,
        0.98306602239608765
      ],
      "min": [
        0.021642699837684631,
        -0.76198798418045044
      ],
      "type": "VEC2"
    },
    {
      "bufferView": 0,
      "componentType": 5125,
      "count": 200964,
      "max": [
        41602
      ],
      "min": [
        0
      ],
      "type": "SCALAR"
    },
    {
      "bufferView": 2,
      "byteOffset": 998472,
      "componentType": 5126,
      "count": 1944,
      "max": [
        0.30271899700164795,
        0.14370299875736237,
        0.2397180050611496
      ],
      "min": [
        -0.30271899700164795,
        -0.00096099998336285353,
        -0.26304200291633606
      ],
      "type": "VEC3"
    },
    {
      "bufferView": 2,
      "byteOffset": 1021800,
      "componentType": 5126,
      "count": 1944,
      "max": [
        0.99851489067077637,
        1,
        0.99851101636886597
      ],
      "min": [
        -0.99851489067077637,
        -1,
        -0.98174422979354858
      ],
      "type": "VEC3"
    },
    {
      "bufferView": 3,
      "byteOffset": 665648,
      "componentType": 5126,
      "count": 1944,
      "max": [
        0,
        0,
        0,
        1
      ],
      "min": [
        0,
        0,
        0,
        1
      ],
      "type": "VEC4"
    },
    {
      "bufferView": 0,
      "byteOffset": 803856,
      "componentType": 5125,
      "count": 11616,
      "max": [
        1943
      ],
      "min": [
        0
      ],
      "type": "SCALAR"
    }
  ],
  "asset": {
    "generator": "Sketchfab (OSG glTF plugin)",
    "version": "2.0"
  },
  "bufferViews": [
    {
      "buffer": 0,
      "byteLength": 850320,
      "byteOffset": 0,
      "name": "floatBufferViews",
      "target": 34963
    },
    {
      "buffer": 0,
      "byteLength": 665648,
      "byteOffset": 850320,
      "byteStride": 8,
      "name": "floatBufferViews",
      "target": 34962
    },
    {
      "buffer": 0,
      "byteLength": 1045128,
      "byteOffset": 1515968,
      "byteStride": 12,
      "name": "floatBufferViews",
      "target": 34962
    },
    {
      "buffer": 0,
      "byteLength": 696752,
      "byteOffset": 2561096,
      "byteStride": 16,
      "name": "floatBufferViews",
      "target": 34962
    }
  ],
  "buffers": [
    {
      "byteLength": 3257848,
      "uri": "scene.bin"
    }
  ],
  "extensionsRequired": [
    "KHR_materials_pbrSpecularGlossiness"
  ],
  "extensionsUsed": [
    "KHR_materials_pbrSpecularGlossiness"
  ],
  "images": [
    {
      "uri": "textures/Tessuto_diffuse.jpeg"
    },
    {
      "uri": "textures/Tessuto_specularGlossiness.png"
    }
  ],
  "materials": [
    {
      "doubleSided": true,
      "extensions": {
        "KHR_materials_pbrSpecularGlossiness": {
          "diffuseFactor": [
            1,
            1,
            1,
            1
          ],
          "diffuseTexture": {
            "index": 0,
            "texCoord": 1
          },
          "glossinessFactor": 0.10000000000000001,
          "specularFactor": [
            0,
            0,
            0
          ],
          "specularGlossinessTexture": {
            "index": 1,
            "texCoord": 0
          }
        }
      },
      "name": "Tessuto"
    },
    {
      "doubleSided": true,
      "emissiveFactor": [
        0,
        0,
        0
      ],
      "extensions": {
        "KHR_materials_pbrSpecularGlossiness": {
          "diffuseFactor": [
            0.028644757959999996,
            0.028644757959999996,
            0.028644757959999996,
            1
          ],
          "glossinessFactor": 0.75,
          "specularFactor": [
            0.94999999999999996,
            0.94999999999999996,
            0.94999999999999996
          ]
        }
      },
      "name": "gambe_vanessa"
    }
  ],
  "meshes": [
    {
      "name": "Material-Tessuto",
      "primitives": [
        {
          "attributes": {
            "NORMAL": 1,
            "POSITION": 0,
            "TANGENT": 2,
            "TEXCOORD_0": 3,
            "TEXCOORD_1": 4
          },
          "indices": 5,
          "material": 0,
          "mode": 4
        }
      ]
    },
    {
      "name": "Material-gambe_vanessa",
      "primitives": [
        {
          "attributes": {
            "NORMAL": 7,
            "POSITION": 6,
            "TANGENT": 8
          },
          "indices": 9,
          "material": 1,
          "mode": 4
        }
      ]
    }
  ],
  "nodes": [
    {
      "children": [
        1
      ],
      "name": "RootNode (gltf orientation matrix)",
      "rotation": [
        -0.70710678118654746,
        -0,
        -0,
        0.70710678118654757
      ]
    },
    {
      "children": [
        2
      ],
      "name": "RootNode (model correction matrix)"
    },
    {
      "children": [
        3,
        5,
        7,
        11
      ],
      "matrix": [
        1,
        0,
        0,
        0,
        0,
        -4.3711390063094768e-08,
        0.999999999999999,
        0,
        0,
        -0.999999999999999,
        -4.3711390063094768e-08,
        0,
        0,
        0,
        0,
        1
      ],
      "name": "Collada visual scene group"
    },
    {
      "children": [
        4
      ],
      "matrix": [
        0.70710678118654746,
        0,
        0.70710678118654757,
        0,
        0.35355339059327373,
        0.86602540378443871,
        -0.35355339059327368,
        0,
        -0.61237243569579458,
        0.49999999999999994,
        0.61237243569579447,
        0,
        -2,
        2,
        2,
        1
      ],
      "name": "Directional_Light"
    },
    {
      "name": "Directional_Light"
    },
    {
      "children": [
        6
      ],
      "matrix": [
        1,
        0,
        0,
        0,
        0,
        0.99619469809174555,
        -0.087155742747658166,
        0,
        0,
        0.087155742747658166,
        0.99619469809174555,
        0,
        0,
        0.75,
        4,
        1
      ],
      "name": "Camera"
    },
    {
      "name": "Camera-camera003"
    },
    {
      "children": [
        8
      ],
      "name": "Mesh"
    },
    {
      "children": [
        9,
        10
      ],
      "name": "Geode"
    },
    {
      "mesh": 0,
      "name": "Material-Tessuto"
    },
    {
      "mesh": 1,
      "name": "Material-gambe_vanessa"
    },
    {
      "children": [
        12
      ],
      "name": "Render"
    },
    {
      "name": "Render"
    }
  ],
  "samplers": [
    {
      "magFilter": 9729,
      "minFilter": 9987,
      "wrapS": 10497,
      "wrapT": 10497
    }
  ],
  "scene": 0,
  "scenes": [
    {
      "name": "OSG_Scene",
      "nodes": [
        0
      ]
    }
  ],
  "textures": [
    {
      "sampler": 0,
      "source": 0
    },
    {
      "sampler": 0,
      "source": 1
    }
  ]
}

